Coordinates
version=1
nRows=32
nColumns=22
inDegrees=yes

Units are S.I. units (second, meters, Newtons, ...)
If the header above contains a line with 'inDegrees', this indicates whether rotational values are in degrees (yes) or radians (no).

endheader
time	pelvis_tilt	pelvis_list	pelvis_rotation	pelvis_tx	pelvis_ty	pelvis_tz	hip_flexion_r	hip_adduction_r	hip_rotation_r	knee_angle_r	ankle_angle_r	subtalar_angle_r	hip_flexion_l	hip_adduction_l	hip_rotation_l	knee_angle_l	ankle_angle_l	subtalar_angle_l	lumbar_extension	lumbar_bending	lumbar_rotation
      4.17000000	     -0.65354929	      2.43911107	    177.20490777	      0.05250835	      0.99831647	     -0.51830346	     21.15678479	     -0.68146510	     12.23909148	     -9.74481649	      7.02231935	     17.86657556	     -3.19711200	      4.15822842	     15.91472384	    -16.95467339	     17.91302758	     -8.11503744	    -14.10568244	      0.88849493	     -4.60614721
      4.18000000	     -0.71501388	      2.46274142	    177.97530021	      0.04492084	      0.99740650	     -0.51995604	     21.15604251	     -0.51788127	     12.32579064	    -10.23093697	      6.84587272	     17.81822245	     -3.59209851	      3.97606469	     16.50348357	    -17.22510548	     18.25864405	     -8.03549672	    -14.09604208	      0.91440801	     -4.62596469
      4.19000000	     -0.76227806	      2.49579557	    178.73247144	      0.03725498	      0.99646800	     -0.52165165	     21.19711889	     -0.31672842	     12.42182860	    -10.95879820	      6.51174535	     17.67392771	     -3.95941528	      3.77840536	     17.03651086	    -17.52614264	     18.59676331	     -7.97134482	    -14.06511144	      0.94705993	     -4.62863624
      4.20000000	     -0.79776008	      2.53971958	    179.47457642	      0.02952055	      0.99552063	     -0.52338337	     21.27320547	     -0.08016859	     12.53708465	    -11.88415428	      6.02094413	     17.43673925	     -4.29540172	      3.56580171	     17.49767453	    -17.86605041	     18.90783133	     -7.91587503	    -14.01729912	      0.98817803	     -4.60469149
      4.21000000	     -0.82139186	      2.59630874	    180.18088448	      0.02170662	      0.99458177	     -0.52514657	     21.37764936	      0.19195868	     12.71557259	    -12.95246167	      5.41461927	     17.24295215	     -4.60694491	      3.34070452	     17.87295289	    -18.23315955	     19.19928341	     -7.88202889	    -13.94842060	      1.04086128	     -4.53866124
      4.22000000	     -0.82714389	      2.65826172	    180.86063505	      0.01383851	      0.99365724	     -0.52691296	     21.53659931	      0.48161022	     12.84968323	    -14.15882940	      4.77560728	     16.89438713	     -4.87059023	      3.11469683	     18.16485119	    -18.65393772	     19.44802608	     -7.82323231	    -13.85610326	      1.09609537	     -4.43781359
      4.23000000	     -0.87006845	      2.75996979	    181.50720450	      0.00589611	      0.99289417	     -0.52863819	     21.65585529	      0.80558653	     12.95342156	    -15.40064717	      4.12871576	     16.79576747	     -5.15471142	      2.85428760	     18.39106664	    -19.11325362	     19.67062995	     -7.79402829	    -13.80295472	      1.20464162	     -4.29429768
      4.24000000	     -0.89076119	      2.86776763	    182.12956158	     -0.00209286	      0.99219816	     -0.53026424	     21.83048378	      1.11598317	     12.90610712	    -16.71099049	      3.60781506	     16.44943385	     -5.36853981	      2.60590559	     18.55899015	    -19.65807596	     19.83494567	     -7.66423925	    -13.71876078	      1.32934844	     -4.11629798
      4.25000000	     -0.96296980	      3.00429931	    182.73034011	     -0.01013539	      0.99172853	     -0.53176528	     21.94530813	      1.42191546	     12.70832968	    -18.00661428	      3.21657667	     16.12080139	     -5.59110602	      2.34188214	     18.65841841	    -20.28554329	     19.94543592	     -7.50377278	    -13.69225825	      1.50337851	     -3.91808106
      4.26000000	     -1.06587778	      3.14902602	    183.31835516	     -0.01819531	      0.99145906	     -0.53309755	     22.01082044	      1.69363114	     12.35460280	    -19.26217055	      3.00308326	     15.66311892	     -5.77591129	      2.09051052	     18.69332132	    -21.03736464	     19.96795420	     -7.25078831	    -13.70102937	      1.70814608	     -3.69294173
      4.27000000	     -1.19710134	      3.31430388	    183.91003904	     -0.02626557	      0.99140278	     -0.53425605	     21.99606921	      1.94293285	     11.87567422	    -20.41910111	      2.94788286	     15.12787246	     -5.91365028	      1.83770392	     18.69734779	    -21.92397800	     19.90913047	     -6.92078854	    -13.73851816	      1.95534513	     -3.46646261
      4.28000000	     -1.35114980	      3.47984435	    184.50165052	     -0.03430056	      0.99155860	     -0.53526552	     21.88530680	      2.16355394	     11.34450619	    -21.44346409	      3.04770843	     14.45938370	     -5.97571366	      1.60274684	     18.61854370	    -22.97742846	     19.72048234	     -6.47021134	    -13.80425895	      2.21959885	     -3.23700810
      4.29000000	     -1.51379178	      3.65742070	    185.11567752	     -0.04227607	      0.99190034	     -0.53612233	     21.67351790	      2.36969837	     10.77299927	    -22.29948821	      3.26362933	     13.72049551	     -5.93439162	      1.37121989	     18.48991366	    -24.21321551	     19.41484250	     -5.92516245	    -13.87816191	      2.51028845	     -3.02521045
      4.30000000	     -1.67078923	      3.83886099	    185.75566638	     -0.05015687	      0.99240168	     -0.53683498	     21.36918941	      2.56016301	     10.19388475	    -22.97476706	      3.57343265	     12.93333972	     -5.76075983	      1.14678621	     18.28007829	    -25.64353458	     18.96006922	     -5.28591616	    -13.94634944	      2.81454326	     -2.83304942
      4.31000000	     -1.80271823	      4.02147833	    186.40817035	     -0.05795477	      0.99302250	     -0.53743862	     20.98998727	      2.74287304	      9.63513524	    -23.46321737	      3.96302154	     12.09354219	     -5.43930298	      0.92950199	     17.97402289	    -27.25345319	     18.31167979	     -4.51745573	    -13.98029563	      3.11926264	     -2.63539772
      4.32000000	     -1.91929673	      4.21357561	    187.12228408	     -0.06557840	      0.99373666	     -0.53787366	     20.55242587	      2.90715424	      9.00890488	    -23.79883697	      4.35317504	     11.34461398	     -4.95046695	      0.69891724	     17.58111006	    -29.07116634	     17.53072666	     -3.76078070	    -14.00032278	      3.44246735	     -2.50618187
      4.33000000	     -1.99645206	      4.39980524	    187.85510328	     -0.07308630	      0.99451152	     -0.53817921	     20.07013675	      3.05123696	      8.38498336	    -23.96309666	      4.77006997	     10.58311169	     -4.29303763	      0.46416496	     17.03926604	    -31.04533453	     16.55379287	     -2.90877816	    -13.96847907	      3.75458218	     -2.34954240
      4.34000000	     -2.05525541	      4.60235754	    188.62904823	     -0.08041832	      0.99532376	     -0.53838306	     19.55686797	      3.20211758	      7.74488985	    -24.00917488	      5.17267098	      9.90983387	     -3.47541055	      0.18371240	     16.35855742	    -33.17637763	     15.43620124	     -2.10747320	    -13.91594554	      4.07893442	     -2.23112622
      4.35000000	     -2.09409386	      4.81698261	    189.43162111	     -0.08759361	      0.99614470	     -0.53852289	     19.02765831	      3.36067830	      7.08866065	    -23.95780485	      5.55241402	      9.30085850	     -2.50818295	     -0.15602216	     15.51179249	    -35.42335667	     14.21024088	     -1.37100366	    -13.83848157	      4.40095760	     -2.11718459
      4.36000000	     -2.11904469	      5.04479987	    190.26124459	     -0.09460856	      0.99694717	     -0.53861082	     18.49487409	      3.53217378	      6.42279285	    -23.83890362	      5.90143865	      8.75477812	     -1.40621383	     -0.57507318	     14.49094491	    -37.75018017	     12.94888300	     -0.74254791	    -13.74462756	      4.72258935	     -2.00371347
      4.37000000	     -2.13875553	      5.29319625	    191.11176003	     -0.10146171	      0.99770054	     -0.53868421	     17.97218807	      3.73209229	      5.74995512	    -23.68769478	      6.21774977	      8.26745010	     -0.18918196	     -1.09954440	     13.30033495	    -40.11878005	     11.73514651	     -0.26516051	    -13.64404541	      5.04784945	     -1.87965814
      4.38000000	     -2.14778355	      5.54812151	    191.97046273	     -0.10818498	      0.99838578	     -0.53878791	     17.46608424	      3.95416986	      5.10344961	    -23.51129422	      6.51830122	      7.79516239	      1.12343556	     -1.73112155	     11.94038219	    -42.47596882	     10.64010917	      0.06289088	    -13.53068036	      5.35315129	     -1.75601027
      4.39000000	     -2.17245390	      5.82029611	    192.83187783	     -0.11476888	      0.99901161	     -0.53893996	     16.97209475	      4.21608360	      4.46779884	    -23.34285566	      6.78904778	      7.36311249	      2.48646756	     -2.49389088	     10.43967919	    -44.78377344	      9.75998098	      0.15117204	    -13.43939428	      5.65646668	     -1.60220897
      4.40000000	     -2.23737182	      6.10404835	    193.68144933	     -0.12127189	      0.99963063	     -0.53916265	     16.45665461	      4.52250894	      3.85049361	    -23.17202475	      7.01972618	      6.98425360	      3.83626625	     -3.39351577	      8.81719320	    -46.98157519	      9.14835869	     -0.01927716	    -13.39440512	      5.95101902	     -1.40362895
      4.41000000	     -2.28596640	      6.36730296	    194.50580405	     -0.12770890	      1.00017912	     -0.53945337	     15.96832533	      4.83413366	      3.29873442	    -22.99966731	      7.27756357	      6.50958052	      5.19468155	     -4.36559138	      7.12406664	    -49.02286702	      8.77798610	     -0.54423437	    -13.33465068	      6.19243641	     -1.19448229
      4.42000000	     -2.40472249	      6.61505887	    195.29755079	     -0.13410959	      1.00081104	     -0.53976159	     15.41512204	      5.17125083	      2.78087689	    -22.82122826	      7.48762703	      6.08802461	      6.43371047	     -5.41924598	      5.39022035	    -50.85919514	      8.70566161	     -1.38248910	    -13.36376225	      6.41746768	     -0.92118117
      4.43000000	     -2.57113644	      6.81987728	    196.05709754	     -0.14047866	      1.00152063	     -0.54003623	     14.80650822	      5.50103345	      2.32182855	    -22.63267345	      7.70299857	      5.66200604	      7.54764644	     -6.48463191	      3.67240861	    -52.46120571	      8.87106707	     -2.51503900	    -13.45818980	      6.59794903	     -0.61851682
      4.44000000	     -2.77945572	      6.96947736	    196.78569799	     -0.14680563	      1.00232705	     -0.54021001	     14.13910441	      5.80201643	      1.90250665	    -22.42797603	      7.91275845	      5.25610457	      8.52376645	     -7.50986130	      2.01074815	    -53.80807880	      9.24326764	     -3.79392522	    -13.61857570	      6.73340419	     -0.29205578
      4.45000000	     -3.01258513	      7.05590780	    197.49269039	     -0.15307740	      1.00321866	     -0.54019480	     13.42448351	      6.04960447	      1.49059274	    -22.20538649	      8.11910085	      4.87694362	      9.37348728	     -8.43617922	      0.45841558	    -54.89591806	      9.75828065	     -5.09197682	    -13.82228448	      6.82069644	      0.06280877
      4.46000000	     -3.25309791	      7.07456238	    198.19017287	     -0.15923961	      1.00416856	     -0.53993443	     12.68054459	      6.22719222	      1.07786829	    -21.97072135	      8.32968354	      4.53210627	     10.12619855	     -9.21222046	     -0.93651610	    -55.73739343	     10.32945316	     -6.28584208	    -14.05601591	      6.86103260	      0.42074695
      4.47000000	     -3.48141238	      7.02545832	    198.89084893	     -0.16525103	      1.00513881	     -0.53938060	     11.92855063	      6.32040243	      0.64245494	    -21.72937077	      8.55169279	      4.23221760	     10.81724685	     -9.79548434	     -2.13000806	    -56.34790853	     10.88887308	     -7.27117863	    -14.29969820	      6.85652967	      0.76570170
      4.48000000	     -3.68951168	      6.93197548	    199.60965444	     -0.17107734	      1.00609350	     -0.53851422	     11.18194257	      6.34516144	      0.16458097	    -21.47628948	      8.75636252	      3.99907998	     11.48650813	    -10.18996654	     -3.09593354	    -56.75533590	     11.37023869	     -7.91698743	    -14.53927720	      6.83543077	      1.08238526
